<mxfile host="app.diagrams.net" modified="2021-12-10T19:09:36.326Z" agent="5.0 (Macintosh; Intel Mac OS X 10_15_7) AppleWebKit/605.1.15 (KHTML, like Gecko) Version/15.1 Safari/605.1.15" etag="R60BII2GrKGjQKyACRLD" version="15.9.4" type="github">
  <diagram id="05mDITtQc8s8Nt9EOSku" name="Page-1">
    <mxGraphModel dx="1029" dy="979" grid="1" gridSize="10" guides="1" tooltips="1" connect="1" arrows="1" fold="1" page="1" pageScale="1" pageWidth="1169" pageHeight="827" math="0" shadow="0">
      <root>
        <mxCell id="0" />
        <mxCell id="1" parent="0" />
        <mxCell id="INmzz2auvGgkM_fXS-6U-14" style="edgeStyle=orthogonalEdgeStyle;rounded=0;orthogonalLoop=1;jettySize=auto;html=1;exitX=0.5;exitY=1;exitDx=0;exitDy=0;entryX=0.5;entryY=0;entryDx=0;entryDy=0;startArrow=classic;startFill=1;endArrow=classic;endFill=1;" edge="1" parent="1" source="INmzz2auvGgkM_fXS-6U-1" target="INmzz2auvGgkM_fXS-6U-2">
          <mxGeometry relative="1" as="geometry" />
        </mxCell>
        <mxCell id="INmzz2auvGgkM_fXS-6U-15" style="rounded=0;orthogonalLoop=1;jettySize=auto;html=1;exitX=0;exitY=0.5;exitDx=0;exitDy=0;entryX=1;entryY=0.5;entryDx=0;entryDy=0;startArrow=classic;startFill=1;" edge="1" parent="1" source="INmzz2auvGgkM_fXS-6U-1" target="INmzz2auvGgkM_fXS-6U-7">
          <mxGeometry relative="1" as="geometry" />
        </mxCell>
        <mxCell id="INmzz2auvGgkM_fXS-6U-1" value="Flight Search UI" style="rounded=0;whiteSpace=wrap;html=1;" vertex="1" parent="1">
          <mxGeometry x="490" y="250" width="180" height="60" as="geometry" />
        </mxCell>
        <mxCell id="INmzz2auvGgkM_fXS-6U-11" style="edgeStyle=orthogonalEdgeStyle;rounded=0;orthogonalLoop=1;jettySize=auto;html=1;exitX=1;exitY=0.75;exitDx=0;exitDy=0;entryX=0;entryY=0.5;entryDx=0;entryDy=0;" edge="1" parent="1" source="INmzz2auvGgkM_fXS-6U-2" target="INmzz2auvGgkM_fXS-6U-4">
          <mxGeometry relative="1" as="geometry" />
        </mxCell>
        <mxCell id="INmzz2auvGgkM_fXS-6U-12" style="edgeStyle=orthogonalEdgeStyle;rounded=0;orthogonalLoop=1;jettySize=auto;html=1;exitX=1;exitY=0.25;exitDx=0;exitDy=0;entryX=0.006;entryY=0.65;entryDx=0;entryDy=0;entryPerimeter=0;" edge="1" parent="1" source="INmzz2auvGgkM_fXS-6U-2" target="INmzz2auvGgkM_fXS-6U-8">
          <mxGeometry relative="1" as="geometry" />
        </mxCell>
        <mxCell id="INmzz2auvGgkM_fXS-6U-2" value="SearchBrain" style="rounded=0;whiteSpace=wrap;html=1;" vertex="1" parent="1">
          <mxGeometry x="490" y="370" width="180" height="140" as="geometry" />
        </mxCell>
        <mxCell id="INmzz2auvGgkM_fXS-6U-3" value="Lexer" style="rounded=0;whiteSpace=wrap;html=1;" vertex="1" parent="1">
          <mxGeometry x="500" y="380" width="95" height="30" as="geometry" />
        </mxCell>
        <mxCell id="INmzz2auvGgkM_fXS-6U-4" value="Aviation DataBank" style="rounded=0;whiteSpace=wrap;html=1;" vertex="1" parent="1">
          <mxGeometry x="730" y="450" width="180" height="60" as="geometry" />
        </mxCell>
        <mxCell id="INmzz2auvGgkM_fXS-6U-7" value="External Flight Search API" style="rounded=0;whiteSpace=wrap;html=1;" vertex="1" parent="1">
          <mxGeometry x="290" y="250" width="140" height="60" as="geometry" />
        </mxCell>
        <mxCell id="INmzz2auvGgkM_fXS-6U-13" style="edgeStyle=orthogonalEdgeStyle;rounded=0;orthogonalLoop=1;jettySize=auto;html=1;exitX=0.5;exitY=0;exitDx=0;exitDy=0;entryX=0.5;entryY=1;entryDx=0;entryDy=0;startArrow=classic;startFill=1;" edge="1" parent="1" source="INmzz2auvGgkM_fXS-6U-8" target="INmzz2auvGgkM_fXS-6U-9">
          <mxGeometry relative="1" as="geometry" />
        </mxCell>
        <mxCell id="INmzz2auvGgkM_fXS-6U-8" value="Knowledge DataStore" style="rounded=0;whiteSpace=wrap;html=1;" vertex="1" parent="1">
          <mxGeometry x="730" y="370" width="180" height="60" as="geometry" />
        </mxCell>
        <mxCell id="INmzz2auvGgkM_fXS-6U-9" value="Knowledge Editor/AI" style="rounded=0;whiteSpace=wrap;html=1;" vertex="1" parent="1">
          <mxGeometry x="730" y="250" width="180" height="60" as="geometry" />
        </mxCell>
      </root>
    </mxGraphModel>
  </diagram>
</mxfile>
